<svg xmlns="http://www.w3.org/2000/svg" width="989.183" height="998.671" viewBox="0 0 989.183 998.671"><defs><clipPath id="Q" clipPathUnits="userSpaceOnUse"><path d="M-1886.12 2038.85H600.314V-228.485H-1886.12Z" style="stroke-width:.999998"/></clipPath><clipPath id="P" clipPathUnits="userSpaceOnUse"><path d="M-1946.024 2036H540.41V-231.339h-2486.434Z" style="stroke-width:.999998"/></clipPath><clipPath id="O" clipPathUnits="userSpaceOnUse"><path d="M-1923.747 1998.757H562.687V-268.58h-2486.434Z" style="stroke-width:.999998"/></clipPath><clipPath id="N" clipPathUnits="userSpaceOnUse"><path d="M-1865.934 2018.371H620.5V-248.966h-2486.434Z" style="stroke-width:.999998"/></clipPath><clipPath id="M" clipPathUnits="userSpaceOnUse"><path d="M-1836.64 1998.757H649.794V-268.58H-1836.64Z" style="stroke-width:.999998"/></clipPath><clipPath id="L" clipPathUnits="userSpaceOnUse"><path d="M-1804.434 1998.757H682V-268.58h-2486.434Z" style="stroke-width:.999998"/></clipPath><clipPath id="K" clipPathUnits="userSpaceOnUse"><path d="M-1765.81 2018.743H720.624V-248.594H-1765.81Z" style="stroke-width:.999998"/></clipPath><clipPath id="J" clipPathUnits="userSpaceOnUse"><path d="M-1706.561 2025.545H779.873V-241.792h-2486.434Z" style="stroke-width:.999998"/></clipPath><clipPath id="I" clipPathUnits="userSpaceOnUse"><path d="M-1736.703 2027.57H749.731V-239.765h-2486.434Z" style="stroke-width:.999998"/></clipPath><clipPath id="H" clipPathUnits="userSpaceOnUse"><path d="M-1758.733 2002.983H727.701V-264.354h-2486.434Z" style="stroke-width:.999998"/></clipPath><clipPath id="G" clipPathUnits="userSpaceOnUse"><path d="M-1760.545 1995.27H725.889V-272.067h-2486.434Z" style="stroke-width:.999998"/></clipPath><clipPath id="F" clipPathUnits="userSpaceOnUse"><path d="M-1736.733 2027.527H749.7V-239.81h-2486.434Z" style="stroke-width:.999998"/></clipPath><clipPath id="E" clipPathUnits="userSpaceOnUse"><path d="M-1761.688 2051.485H724.746V-215.852h-2486.434Z" style="stroke-width:.999998"/></clipPath><clipPath id="D" clipPathUnits="userSpaceOnUse"><path d="M-1755.853 2020.968H730.58V-246.37h-2486.434Z" style="stroke-width:.999998"/></clipPath><clipPath id="C" clipPathUnits="userSpaceOnUse"><path d="M-1726.056 2023.065H760.378V-244.272h-2486.434Z" style="stroke-width:.999998"/></clipPath><clipPath id="B" clipPathUnits="userSpaceOnUse"><path d="M-1682.276 1982.039H804.158V-285.298h-2486.434Z" style="stroke-width:.999998"/></clipPath><clipPath id="A" clipPathUnits="userSpaceOnUse"><path d="M-1688.606 2033.01H797.828V-234.327h-2486.434Z" style="stroke-width:.999998"/></clipPath><clipPath id="z" clipPathUnits="userSpaceOnUse"><path d="M-1730.186 1999.193H756.248V-268.144h-2486.434Z" style="stroke-width:.999998"/></clipPath><clipPath id="y" clipPathUnits="userSpaceOnUse"><path d="M-1730.186 2005.594H756.248V-261.743h-2486.434Z" style="stroke-width:.999998"/></clipPath><clipPath id="x" clipPathUnits="userSpaceOnUse"><path d="M-1775.8 1376.96H710.632V-890.377H-1775.8Z" style="stroke-width:.999998"/></clipPath><clipPath id="w" clipPathUnits="userSpaceOnUse"><path d="M-1787.74 1362.678H698.696V-904.659H-1787.74Z" style="stroke-width:.999998"/></clipPath><clipPath id="v" clipPathUnits="userSpaceOnUse"><path d="M-1809.197 1364.405H677.237V-902.932h-2486.434Z" style="stroke-width:.999998"/></clipPath><clipPath id="u" clipPathUnits="userSpaceOnUse"><path d="M-1780.722 1369.5H705.712V-897.835h-2486.434Z" style="stroke-width:.999998"/></clipPath><clipPath id="t" clipPathUnits="userSpaceOnUse"><path d="M-1840.218 1431.654H646.216V-835.683h-2486.434Z" style="stroke-width:.999998"/></clipPath><clipPath id="s" clipPathUnits="userSpaceOnUse"><path d="M-1792.763 1434.573H693.67V-832.764h-2486.435Z" style="stroke-width:.999998"/></clipPath><clipPath id="r" clipPathUnits="userSpaceOnUse"><path d="M-1783.643 1427.603H702.79V-839.734h-2486.434Z" style="stroke-width:.999998"/></clipPath><clipPath id="q" clipPathUnits="userSpaceOnUse"><path d="M-1814.191 1392.942H672.243V-874.395h-2486.434Z" style="stroke-width:.999998"/></clipPath><clipPath id="p" clipPathUnits="userSpaceOnUse"><path d="M-1814.191 1376.68H672.243V-890.659h-2486.434Z" style="stroke-width:.999998"/></clipPath><clipPath id="o" clipPathUnits="userSpaceOnUse"><path d="M-1832.849 1326.889H653.585V-940.448h-2486.434Z" style="stroke-width:.999998"/></clipPath><clipPath id="n" clipPathUnits="userSpaceOnUse"><path d="M-1796.587 1576.674H689.847V-690.663h-2486.434Z" style="stroke-width:.999998"/></clipPath><clipPath id="m" clipPathUnits="userSpaceOnUse"><path d="M-1828.648 1589.568H657.786V-677.77h-2486.434Z" style="stroke-width:.999998"/></clipPath><clipPath id="l" clipPathUnits="userSpaceOnUse"><path d="M-1796.782 1592.757H689.652V-674.58h-2486.434Z" style="stroke-width:.999998"/></clipPath><clipPath id="k" clipPathUnits="userSpaceOnUse"><path d="M-1790.975 1601.764H695.459V-665.573h-2486.434Z" style="stroke-width:.999998"/></clipPath><clipPath id="j" clipPathUnits="userSpaceOnUse"><path d="M-1789.753 1618.397H696.681V-648.94h-2486.434Z" style="stroke-width:.999998"/></clipPath><clipPath id="i" clipPathUnits="userSpaceOnUse"><path d="M-1790.975 1611.937H695.459V-655.4h-2486.434Z" style="stroke-width:.999998"/></clipPath><clipPath id="h" clipPathUnits="userSpaceOnUse"><path d="M-1780.758 1624.544H705.676V-642.793h-2486.434Z" style="stroke-width:.999998"/></clipPath><clipPath id="g" clipPathUnits="userSpaceOnUse"><path d="M-1852.21 1759.942H634.224V-507.395H-1852.21Z" style="stroke-width:.999998"/></clipPath><clipPath id="f" clipPathUnits="userSpaceOnUse"><path d="M-1783.485 1753.169H702.949V-514.168h-2486.434Z" style="stroke-width:.999998"/></clipPath><clipPath id="e" clipPathUnits="userSpaceOnUse"><path d="M-1789.407 1636.291H697.027V-631.046h-2486.434Z" style="stroke-width:.999998"/></clipPath><clipPath id="d" clipPathUnits="userSpaceOnUse"><path d="M-1764.347 1506.444H722.087V-760.893h-2486.434Z" style="stroke-width:.999998"/></clipPath><clipPath id="c" clipPathUnits="userSpaceOnUse"><path d="M-1830.622 1572.902H655.812V-694.435h-2486.434Z" style="stroke-width:.999998"/></clipPath><clipPath id="b" clipPathUnits="userSpaceOnUse"><path d="M-1861.87 1501.612H624.564V-765.725H-1861.87Z" style="stroke-width:.999998"/></clipPath><clipPath id="a" clipPathUnits="userSpaceOnUse"><path d="M-1872.03 1446.819H614.406V-820.518H-1872.03Z" style="stroke-width:.999998"/></clipPath></defs><text xml:space="preserve" style="font-variant:normal;font-weight:400;font-stretch:normal;font-size:112.407px;font-family:&quot;DM Serif Display&quot;;-inkscape-font-specification:DMSerifDisplay-Regular;writing-mode:lr-tb;fill:#000;fill-opacity:1;fill-rule:nonzero;stroke:none" transform="translate(-2.997 848.656)scale(1.33333)"><tspan x="0 73.739059 135.00093 194.57669 251.56709 301.13861 366.10992 427.3718 476.94333 525.95282 550.45758 618.23907 681.97388" y="0">Governors Cup</tspan></text><text xml:space="preserve" style="font-variant:normal;font-weight:600;font-stretch:normal;font-size:57.801px;font-family:&quot;Montserrat SemiBold&quot;;-inkscape-font-specification:Montserrat-SemiBold;writing-mode:lr-tb;fill:#000;fill-opacity:1;fill-rule:nonzero;stroke:none" transform="translate(156.904 717.883)scale(1.33333)"><tspan x="0 48.495041 98.203896 119.53247 157.21872 198.83543 249.46912 268.31226 307.55911 345.24536 391.42838 429.11462 470.73135" y="0">UNITED STATES</tspan></text><g clip-path="url(#a)" transform="matrix(1.33333 0 0 -1.33333 571.972 184.68)"><path d="M0 0h-115.52a1.31 1.31 0 0 1-1.305-1.306v-.5a1.31 1.31 0 0 1 1.305-1.306h.099l.024.008H.072a1.307 1.307 0 0 1 1.234 1.298v.5A1.31 1.31 0 0 1 0 0" style="fill:#deb56a;fill-opacity:1;fill-rule:nonzero;stroke:none"/></g><g clip-path="url(#b)" transform="matrix(1.33333 0 0 -1.33333 558.426 257.738)"><path d="M0 0c6.201 23.088 8.518 41.995 9.258 49.519h-113.716c.61-6.183 2.91-25.883 9.257-49.519z" style="fill:#deb56a;fill-opacity:1;fill-rule:nonzero;stroke:none"/></g><g clip-path="url(#c)" transform="matrix(1.33333 0 0 -1.33333 516.762 352.79)"><path d="M0 0c11.818 17.202 21.529 38.363 28.871 62.912l-83.895-19.366C-48.76 27.089-41.253 12.442-32.705 0Z" style="fill:#deb56a;fill-opacity:1;fill-rule:nonzero;stroke:none"/></g><g clip-path="url(#d)" transform="matrix(1.33333 0 0 -1.33333 428.395 264.18)"><path d="m0 0 9.451-20.043c.146-.292.278-.554.421-.751l.177.041L97.007-.68l.082.172c.462 1.04.947 2.326 1.004 2.751H1.577C.684 1.268.089.334 0 0" style="fill:#deb56a;fill-opacity:1;fill-rule:nonzero;stroke:none"/></g><g clip-path="url(#e)" transform="matrix(1.33333 0 0 -1.33333 461.808 437.31)"><path d="M0 0c0 .964.788 1.752 1.752 1.752h.671c.963 0 1.752-.788 1.752-1.752v-109.695c0-.963-.789-1.752-1.752-1.752h-.671c-.964 0-1.752.788-1.752 1.752zm9.127 0c0 .964.789 1.752 1.752 1.752h.671c.964 0 1.752-.788 1.752-1.752v-109.695c0-.963-.788-1.752-1.752-1.752h-.671c-.963 0-1.752.788-1.752 1.752zm9.128 0c0 .964.788 1.752 1.752 1.752h.671c.963 0 1.752-.788 1.752-1.752v-109.695c0-.963-.789-1.752-1.752-1.752h-.671c-.964 0-1.752.788-1.752 1.752zm9.127 0c0 .964.789 1.752 1.752 1.752h.671c.964 0 1.752-.788 1.752-1.752v-109.695c0-.963-.788-1.752-1.752-1.752h-.671c-.963 0-1.752.788-1.752 1.752zm9.128 0c0 .964.788 1.752 1.752 1.752h.671c.963 0 1.752-.788 1.752-1.752v-109.695c0-.963-.789-1.752-1.752-1.752h-.671c-.964 0-1.752.788-1.752 1.752zm9.127 0c0 .964.789 1.752 1.752 1.752h.671c.964 0 1.752-.788 1.752-1.752v-109.695c0-.963-.788-1.752-1.752-1.752h-.671c-.963 0-1.752.788-1.752 1.752zm9.28-114.702c.084 0 .158-.03.224-.071V6.898a.4.4 0 0 0-.224-.07H-5.105a.4.4 0 0 0-.224.07v-121.671c.067.041.14.071.224.071z" style="fill:#deb56a;fill-opacity:1;fill-rule:nonzero;stroke:none"/></g><g clip-path="url(#f)" transform="matrix(1.33333 0 0 -1.33333 453.913 593.147)"><path d="M0 0c-1.523-.122-2.727-1.133-2.727-2.367 0-1.315 1.363-2.391 3.029-2.391h61.051c1.666 0 3.029 1.076 3.029 2.391S63.019.024 61.353.024H.302L.219.018Z" style="fill:#deb56a;fill-opacity:1;fill-rule:nonzero;stroke:none"/></g><g clip-path="url(#g)" transform="matrix(1.33333 0 0 -1.33333 545.546 602.177)"><path d="M0 0h-75.795A1.31 1.31 0 0 1-77.1-1.306v-6.976c0-.718.587-1.305 1.305-1.305H0a1.31 1.31 0 0 1 1.306 1.305v6.976A1.31 1.31 0 0 1 0 0" style="fill:#deb56a;fill-opacity:1;fill-rule:nonzero;stroke:none"/></g><g clip-path="url(#h)" transform="matrix(1.33333 0 0 -1.33333 450.278 421.647)"><path d="M0 0a3.037 3.037 0 0 1 3.028-3.028H64.08A3.037 3.037 0 0 1 67.108 0a3.037 3.037 0 0 1-3.028 3.028H3.028A3.037 3.037 0 0 1 0 0" style="fill:#deb56a;fill-opacity:1;fill-rule:nonzero;stroke:none"/></g><g clip-path="url(#i)" transform="matrix(1.33333 0 0 -1.33333 463.9 404.838)"><path d="M0 0a2.73 2.73 0 0 1 2.721-2.721h41.232A2.73 2.73 0 0 1 46.675 0v2.268c0 .589-.195 1.132-.517 1.579-.356.495-.874.86-1.475 1.029a2.7 2.7 0 0 1-.73.113H2.721c-.254 0-.496-.047-.729-.113A2.73 2.73 0 0 1 0 2.268Z" style="fill:#deb56a;fill-opacity:1;fill-rule:nonzero;stroke:none"/></g><g clip-path="url(#j)" transform="matrix(1.33333 0 0 -1.33333 462.27 413.45)"><path d="M0 0a1.31 1.31 0 0 1 1.306-1.306h46.508A1.31 1.31 0 0 1 49.12 0a1.31 1.31 0 0 1-1.306 1.306H1.306A1.31 1.31 0 0 1 0 0" style="fill:#deb56a;fill-opacity:1;fill-rule:nonzero;stroke:none"/></g><g clip-path="url(#k)" transform="matrix(1.33333 0 0 -1.33333 463.9 391.274)"><path d="M0 0v-1.399a1.31 1.31 0 0 1 1.306-1.306h44.063a1.31 1.31 0 0 1 1.306 1.306V0a1.31 1.31 0 0 1-1.306 1.306H1.306A1.31 1.31 0 0 1 0 0" style="fill:#deb56a;fill-opacity:1;fill-rule:nonzero;stroke:none"/></g><g clip-path="url(#l)" transform="matrix(1.33333 0 0 -1.33333 471.642 379.264)"><path d="M0 0v-4.477a1.31 1.31 0 0 1 1.306-1.305h32.45a1.31 1.31 0 0 1 1.306 1.305V0a1.31 1.31 0 0 1-1.306 1.306H1.306A1.31 1.31 0 0 1 0 0" style="fill:#deb56a;fill-opacity:1;fill-rule:nonzero;stroke:none"/></g><g clip-path="url(#m)" transform="matrix(1.33333 0 0 -1.33333 514.13 375.012)"><path d="M0 0a1.31 1.31 0 0 1 1.306 1.306v3.461A1.31 1.31 0 0 1 0 6.073h-28.672a1.31 1.31 0 0 1-1.305-1.306V1.306A1.31 1.31 0 0 1-28.672 0Z" style="fill:#deb56a;fill-opacity:1;fill-rule:nonzero;stroke:none"/></g><g clip-path="url(#n)" transform="matrix(1.33333 0 0 -1.33333 471.383 357.821)"><path d="M0 0v-3.824A1.31 1.31 0 0 1 1.306-5.13h32.839a1.31 1.31 0 0 1 1.306 1.306V0a1.31 1.31 0 0 1-1.306 1.306h-1.274l.03.043H2.549l.03-.043H1.306A1.31 1.31 0 0 1 0 0" style="fill:#deb56a;fill-opacity:1;fill-rule:nonzero;stroke:none"/></g><g clip-path="url(#o)" transform="matrix(1.33333 0 0 -1.33333 519.732 24.773)"><path d="M0 0c0-10.261-8.318-18.58-18.58-18.58S-37.159-10.261-37.159 0s8.318 18.58 18.579 18.58S0 10.261 0 0" style="fill:#deb56a;fill-opacity:1;fill-rule:nonzero;stroke:none"/></g><path d="M0 0c7.192 3.668 14.385 7.343 21.577 9.188a43 43 0 0 1-10.493 4.289C7.389 11.838 3.695 9.954 0 8.07Z" style="fill:#deb56a;fill-opacity:1;fill-rule:nonzero;stroke:none" transform="matrix(1.33333 0 0 -1.33333 494.855 80.237)"/><g clip-path="url(#p)" transform="matrix(1.33333 0 0 -1.33333 494.855 91.16)"><path d="M0 0v-8.07C12.532-1.678 25.064 4.731 37.597 1.449a43.5 43.5 0 0 1-6.892 8.958C20.47 10.451 10.235 5.22 0 0" style="fill:#deb56a;fill-opacity:1;fill-rule:nonzero;stroke:none"/></g><g clip-path="url(#q)" transform="matrix(1.33333 0 0 -1.33333 494.855 112.845)"><path d="M0 0v-8.07C14.432-.709 28.865 6.674 43.297-.747a43.2 43.2 0 0 1-1.585 8.826C27.808 14.203 13.904 7.091 0 0" style="fill:#deb56a;fill-opacity:1;fill-rule:nonzero;stroke:none"/></g><g clip-path="url(#r)" transform="matrix(1.33333 0 0 -1.33333 454.124 159.06)"><path d="M0 0c24.071-.103 48.141 28.977 72.212 18.429a43 43 0 0 1 1.481 7.37C46.831 39.417 19.969 1.925-6.892 8.958A43.5 43.5 0 0 1 0 0" style="fill:#deb56a;fill-opacity:1;fill-rule:nonzero;stroke:none"/></g><g clip-path="url(#s)" transform="matrix(1.33333 0 0 -1.33333 466.284 168.353)"><path d="M0 0a43 43 0 0 1 10.5-4.293c15.112 6.704 30.225 17.536 45.337 15.477a43.4 43.4 0 0 1 4.444 7.076C40.188 24.578 20.094 5.152 0 0" style="fill:#deb56a;fill-opacity:1;fill-rule:nonzero;stroke:none"/></g><g clip-path="url(#t)" transform="matrix(1.33333 0 0 -1.33333 529.557 164.46)"><path d="M0 0c-7.654-1.078-15.307-4.653-22.961-8.519A43.1 43.1 0 0 1 0 0" style="fill:#deb56a;fill-opacity:1;fill-rule:nonzero;stroke:none"/></g><path d="m0 0 .167.199z" style="fill:#deb56a;fill-opacity:1;fill-rule:nonzero;stroke:none" transform="matrix(1.33333 0 0 -1.33333 450.272 81.534)"/><path d="M0 0q.162.218.326.434z" style="fill:#deb56a;fill-opacity:1;fill-rule:nonzero;stroke:none" transform="matrix(1.33333 0 0 -1.33333 448.443 83.89)"/><g clip-path="url(#u)" transform="matrix(1.33333 0 0 -1.33333 450.229 81.59)"><path d="M0 0c-.259-.316-.506-.64-.756-.963.138-.019.276-.043.414-.06z" style="fill:#deb56a;fill-opacity:1;fill-rule:nonzero;stroke:none"/></g><g clip-path="url(#v)" transform="matrix(1.33333 0 0 -1.33333 488.196 74.795)"><path d="m0 0 .782-2.033q-1.026.237-2.053.484a494 494 0 0 0-2.053-2.484l.782 2.793q-1.037.248-2.074.516 1.282.589 2.563 1.207l.782 2.802.782-2.039q1.282.634 2.564 1.281A936 936 0 0 0 0 0m0-11.445.782-2.033q-1.026.235-2.053.484a494 494 0 0 0-2.053-2.484l.782 2.793q-1.037.247-2.074.516 1.282.588 2.563 1.207l.782 2.802.782-2.039q1.282.632 2.564 1.281A936 936 0 0 0 0-11.445m0-11.446.782-2.032q-1.026.235-2.053.484a494 494 0 0 0-2.053-2.485l.782 2.794q-1.037.247-2.074.516 1.282.588 2.563 1.207l.782 2.801.782-2.038q1.282.632 2.564 1.281Q1.038-21.631 0-22.891m.782-13.478q-1.026.237-2.053.485a453 453 0 0 0-2.053-2.485l.782 2.794q-1.037.247-2.074.515 1.282.589 2.563 1.207l.782 2.802.782-2.039q1.282.634 2.564 1.281A936 936 0 0 0 0-34.336zm-8.744 3.153q-1.026-1.178-2.053-2.323.392 1.362.782 2.728-1.037.331-2.074.698 1.28.466 2.563.987l.782 2.743.782-2.092q1.282.55 2.564 1.138a327 327 0 0 0-2.075-2.415l.782-2.079q-1.027.294-2.053.615m-4.638-8.983q-1.027.401-2.053.846a121 121 0 0 0-2.053-2.061q.391 1.308.782 2.625-1.037.465-2.075.982a46 46 0 0 1 2.564.64l.782 2.647q.391-1.095.782-2.183 1.282.402 2.564.868a171 171 0 0 0-2.075-2.201zm-8.744 5.122a73 73 0 0 0-2.053-1.698q.391 1.238.782 2.484-1.038.65-2.075 1.368 1.282.032 2.564.167l.782 2.513q.391-1.161.782-2.314 1.281.193 2.563.473a91 91 0 0 0-2.074-1.884q.39-1.147.782-2.287-1.027.56-2.053 1.178m-5.42-5.035q.39-1.229.782-2.447a58 58 0 0 0-2.053 1.61 43 43 0 0 0-2.053-1.234l.782 2.303a63 63 0 0 0-2.075 1.857q1.282-.279 2.564-.432l.782 2.34q.391-1.246.782-2.482a29 29 0 0 1 2.563-.048 54 54 0 0 0-2.074-1.467m-7.962 6.363a26 26 0 0 0-2.053-.67q.391 1.035.782 2.084a80 80 0 0 0-2.075 2.447 29 29 0 0 1 2.564-1.156q.39 1.057.782 2.128.39-1.351.782-2.689a27 27 0 0 1 2.563-.695 32 32 0 0 0-2.074-.947q.39-1.33.782-2.647a70 70 0 0 0-2.053 2.145m5.909 6.74.782 2.339q.391-1.246.782-2.482a29 29 0 0 1 2.563-.048 55 55 0 0 0-2.074-1.467q.39-1.229.782-2.447a57 57 0 0 0-2.053 1.611 43 43 0 0 0-2.053-1.234l.782 2.302a63 63 0 0 0-2.075 1.858q1.282-.28 2.564-.432m0 11.445.782 2.34q.391-1.247.782-2.483a30 30 0 0 1 2.563-.048 55 55 0 0 0-2.074-1.466q.39-1.23.782-2.448a58 58 0 0 0-2.053 1.611 43 43 0 0 0-2.053-1.234q.39 1.145.782 2.303a62 62 0 0 0-2.075 1.857q1.282-.28 2.564-.432m6.691 5.699.782 2.512q.391-1.161.782-2.313 1.282.192 2.563.473a93 93 0 0 0-2.074-1.885q.39-1.148.782-2.286-1.026.559-2.053 1.178a73 73 0 0 0-2.053-1.698q.391 1.236.782 2.483-1.037.65-2.075 1.369 1.282.032 2.564.167m6.691 7.034.782 2.647.782-2.184q1.282.402 2.564.869A165 165 0 0 0-13.382-5.7l.782-2.163q-1.027.4-2.053.846a121 121 0 0 0-2.053-2.061q.391 1.308.782 2.625-1.037.465-2.075.982a46 46 0 0 1 2.564.64m9.526-6.109q-1.026.293-2.053.614-1.027-1.178-2.053-2.323.392 1.362.782 2.729-1.037.331-2.074.698 1.28.466 2.563.986l.782 2.744.782-2.092q1.282.55 2.564 1.137a327 327 0 0 0-2.075-2.414q.391-1.043.782-2.079m-6.691-8.369q-1.027.402-2.053.846-1.026-1.054-2.053-2.061l.782 2.625q-1.037.466-2.075.983 1.282.281 2.564.639l.782 2.648.782-2.184q1.282.402 2.564.868a171 171 0 0 0-2.075-2.201zm-6.691-7.5q-1.027.559-2.053 1.178a71 71 0 0 0-2.053-1.698q.391 1.236.782 2.483-1.038.65-2.075 1.369 1.282.032 2.564.166l.782 2.513.782-2.314q1.281.193 2.563.473a93 93 0 0 0-2.074-1.884q.39-1.147.782-2.286m6.691-3.945q-1.027.401-2.053.846-1.026-1.055-2.053-2.061l.782 2.625q-1.037.466-2.075.983 1.282.28 2.564.639.391 1.32.782 2.648l.782-2.184q1.282.402 2.564.868a171 171 0 0 0-2.075-2.201zm6.691 8.368q-1.026.294-2.053.615-1.026-1.178-2.053-2.323.392 1.362.782 2.728a70 70 0 0 0-2.074.699q1.28.465 2.563.986l.782 2.744.782-2.092q1.282.548 2.564 1.137a350 350 0 0 0-2.075-2.415zM-8.744 3.209l.782 2.744.782-2.092q1.282.55 2.564 1.138a327 327 0 0 0-2.075-2.415l.782-2.079q-1.027.293-2.053.615-1.026-1.178-2.053-2.323.392 1.361.782 2.728-1.037.331-2.074.698 1.28.466 2.563.986m9.09 7.338.436-1.135q-1.026.237-2.053.485a453 453 0 0 0-2.053-2.485l.759 2.71a43 43 0 0 1-9.273-2.738 145 145 0 0 0-1.544-1.639l.782-2.163q-1.027.401-2.053.846-1.026-1.054-2.053-2.061l.782 2.625c-.125.056-.249.118-.374.175a43 43 0 0 1-4.972-3.293l.708-2.095q1.281.192 2.563.473a93 93 0 0 0-2.074-1.885q.39-1.147.782-2.286-1.027.56-2.053 1.178a73 73 0 0 0-2.053-1.698q.391 1.237.782 2.483-.897.565-1.795 1.18a44 44 0 0 1-3.441-3.588l.598-1.897a29 29 0 0 1 2.563-.048 54 54 0 0 0-2.074-1.467q.39-1.229.782-2.447a57 57 0 0 0-2.053 1.61 43 43 0 0 0-2.053-1.234l.782 2.303c-.21.18-.42.367-.63.551a43 43 0 0 1-2.663-4.119q.609-.164 1.218-.297a32 32 0 0 0-1.854-.851l-.158-.308q.36-1.223.72-2.435-.644.646-1.287 1.327a43 43 0 0 1-2.769-7.408q.61-.275 1.221-.515.39 1.057.782 2.128.39-1.35.782-2.689a27 27 0 0 1 2.563-.695 32 32 0 0 0-2.074-.947q.39-1.329.782-2.647a71 71 0 0 0-2.053 2.145 26 26 0 0 0-2.053-.67q.391 1.035.782 2.084-.466.53-.933 1.078a43.5 43.5 0 0 1-1.338-10.721c0-4.191.596-8.241 1.706-12.074 13.852-6.101 27.704.935 41.556 7.999v47.414a44 44 0 0 1-4.648-.259" style="fill:#deb56a;fill-opacity:1;fill-rule:nonzero;stroke:none"/></g><path d="m0 0 .053.199z" style="fill:#deb56a;fill-opacity:1;fill-rule:nonzero;stroke:none" transform="matrix(1.33333 0 0 -1.33333 438.967 103.83)"/><g clip-path="url(#w)" transform="matrix(1.33333 0 0 -1.33333 459.585 72.493)"><path d="M0 0a44 44 0 0 1-2.73-2.29 32 32 0 0 1 2.062.143Q-.334-1.077 0 0" style="fill:#deb56a;fill-opacity:1;fill-rule:nonzero;stroke:none"/></g><path d="M0 0q.14.259.283.516Q.14.259 0 0" style="fill:#deb56a;fill-opacity:1;fill-rule:nonzero;stroke:none" transform="matrix(1.33333 0 0 -1.33333 443.987 90.937)"/><path d="m0 0-.004-.015Q.183.02.372.053C.249.032.123.022 0 0" style="fill:#01ff00;fill-opacity:1;fill-rule:nonzero;stroke:none" transform="matrix(1.33333 0 0 -1.33333 484.781 61.279)"/><path d="M0 0c-.083-.009-.164-.026-.248-.035.084.009.166.023.249.032z" style="fill:#01ff00;fill-opacity:1;fill-rule:nonzero;stroke:none" transform="matrix(1.33333 0 0 -1.33333 488.655 60.728)"/><path d="m0 0 .011-.005.253.145C.177.092.087.049 0 0" style="fill:#01ff00;fill-opacity:1;fill-rule:nonzero;stroke:none" transform="matrix(1.33333 0 0 -1.33333 466.45 67.898)"/><path d="M0 0c.199.101.395.208.596.306C.396.208.199.102 0 0" style="fill:#01ff00;fill-opacity:1;fill-rule:nonzero;stroke:none" transform="matrix(1.33333 0 0 -1.33333 468.782 66.66)"/><path d="m0 0-.01-.005.009.004z" style="fill:#01ff00;fill-opacity:1;fill-rule:nonzero;stroke:none" transform="matrix(1.33333 0 0 -1.33333 472.414 64.949)"/><path d="m0 0-.181-.139-.005-.015.188.148z" style="fill:#01ff00;fill-opacity:1;fill-rule:nonzero;stroke:none" transform="matrix(1.33333 0 0 -1.33333 459.833 72.287)"/><path d="m0 0-.224-.209.005-.003q.11.107.221.212z" style="fill:#01ff00;fill-opacity:1;fill-rule:nonzero;stroke:none" transform="matrix(1.33333 0 0 -1.33333 455.943 75.547)"/><path d="m0 0 .004-.004c.042.057.08.115.122.171z" style="fill:#01ff00;fill-opacity:1;fill-rule:nonzero;stroke:none" transform="matrix(1.33333 0 0 -1.33333 448.275 84.113)"/><path d="m0 0-.001-.004.032.041z" style="fill:#01ff00;fill-opacity:1;fill-rule:nonzero;stroke:none" transform="matrix(1.33333 0 0 -1.33333 450.23 81.583)"/><path d="m0 0-.247-.329q.128.165.257.328z" style="fill:#01ff00;fill-opacity:1;fill-rule:nonzero;stroke:none" transform="matrix(1.33333 0 0 -1.33333 449.208 82.872)"/><path d="M0 0q-.212-.25-.422-.503c.139.167.285.327.426.492z" style="fill:#01ff00;fill-opacity:1;fill-rule:nonzero;stroke:none" transform="matrix(1.33333 0 0 -1.33333 451.057 80.599)"/><path d="m0 0 .008.004.078.153z" style="fill:#01ff00;fill-opacity:1;fill-rule:nonzero;stroke:none" transform="matrix(1.33333 0 0 -1.33333 443.872 91.147)"/><path d="M0 0c-.091-.159-.176-.321-.264-.482.089.162.184.319.275.479z" style="fill:#01ff00;fill-opacity:1;fill-rule:nonzero;stroke:none" transform="matrix(1.33333 0 0 -1.33333 444.717 89.607)"/><g clip-path="url(#x)" transform="matrix(1.33333 0 0 -1.33333 443.667 91.535)"><path d="M0 0a42 42 0 0 1-.564-1.12l.001-.001c.181.374.375.74.567 1.108z" style="fill:#01ff00;fill-opacity:1;fill-rule:nonzero;stroke:none"/></g><path d="m0 0-.132-.497c.043.166.095.329.139.494z" style="fill:#01ff00;fill-opacity:1;fill-rule:nonzero;stroke:none" transform="matrix(1.33333 0 0 -1.33333 439.215 102.903)"/><path d="m0 0 .001-.001.008.035z" style="fill:#01ff00;fill-opacity:1;fill-rule:nonzero;stroke:none" transform="matrix(1.33333 0 0 -1.33333 438.955 103.876)"/><g clip-path="url(#y)" transform="matrix(1.33333 0 0 -1.33333 382.848 929.713)"><path d="M0 0c2.231 0 4.395-.204 6.461-.581l4.918 5.124C7.94 5.733 4.079 6.401 0 6.401c-6.937 0-13.234-1.935-17.903-5.083l4.284-4.06C-9.657-1.006-4.995 0 0 0" style="fill:#98999b;fill-opacity:1;fill-rule:nonzero;stroke:none"/></g><g clip-path="url(#z)" transform="matrix(1.33333 0 0 -1.33333 382.848 921.179)"><path d="M0 0c4.079 0 7.94-.668 11.379-1.858l5.344 5.566C11.736 5.673 6.047 6.79 0 6.79c-9.011 0-17.235-2.48-23.51-6.56l5.607-5.312C-13.234-1.934-6.937 0 0 0" style="fill:#fff;fill-opacity:1;fill-rule:nonzero;stroke:none"/></g><path d="M0 0c.449 1.836 1.281 3.58 2.426 5.19L.273 7.368A13.6 13.6 0 0 1-.392 3.2c0-1.092.139-2.16.392-3.2" style="fill:#98999b;fill-opacity:1;fill-rule:nonzero;stroke:none" transform="matrix(1.33333 0 0 -1.33333 348.623 950.212)"/><g clip-path="url(#A)" transform="matrix(1.33333 0 0 -1.33333 327.408 966.268)"><path d="m0 0-.904-4.688L8.092-.815C7.524.38 7.413 1.936 7.083 3.203Z" style="fill:#98999b;fill-opacity:1;fill-rule:nonzero;stroke:none"/></g><g clip-path="url(#B)" transform="matrix(1.33333 0 0 -1.33333 318.967 898.307)"><path d="m0 0-13.02-71.294 6.157-.503L6.029.536Z" style="fill:#98999b;fill-opacity:1;fill-rule:nonzero;stroke:none"/></g><g clip-path="url(#C)" transform="matrix(1.33333 0 0 -1.33333 377.342 953.008)"><path d="M0 0v5.766l-9.456 8.963-4.284 4.06-5.607 5.313-18.425 17.461-12.897-72.334 27.288 11.998c-2.717 2.4-4.644 4.958-6.073 7.972l-8.884-3.81.892 4.662 5.756 30.001.481 2.518 4.752-4.786 6.113-6.158 2.627-2.647L-6.923-.318l-10.48-4.801c2.724-2.72 5.945-5.113 10.292-6.467L5.961-5.715z" style="fill:#e1261c;fill-opacity:1;fill-rule:nonzero;stroke:none"/></g><g clip-path="url(#D)" transform="matrix(1.33333 0 0 -1.33333 417.07 950.212)"><path d="M0 0c.254 1.04.395 2.108.395 3.2 0 3.22-1.179 6.259-3.203 8.899l-3.103-3.214C-2.934 6.405-.815 3.35 0 0" style="fill:#98999b;fill-opacity:1;fill-rule:nonzero;stroke:none"/></g><g clip-path="url(#E)" transform="matrix(1.33333 0 0 -1.33333 424.85 990.901)"><path d="m0 0-7.355 7.068a36 36 0 0 0-3.75-2.232L0-5.827l34.246 35.669-.038 5.776Z" style="fill:#98999b;fill-opacity:1;fill-rule:nonzero;stroke:none"/></g><g clip-path="url(#F)" transform="matrix(1.33333 0 0 -1.33333 391.577 958.958)"><path d="m0 0-6.056 5.818-4.638 4.425-.016-5.781 6.518-6.26 6.23-5.983c1.581.395 3.096.892 4.522 1.483z" style="fill:#98999b;fill-opacity:1;fill-rule:nonzero;stroke:none"/></g><g clip-path="url(#G)" transform="matrix(1.33333 0 0 -1.33333 423.327 915.948)"><path d="m0 0-4.875-5.075-5.379-5.605-3.664-3.816-6.947-7.234 2.91-2.793 7.391 7.696 3.092 3.218 5.66 5.895L0-5.825l18.833-18.053 2.913 3.024z" style="fill:#98999b;fill-opacity:1;fill-rule:nonzero;stroke:none"/></g><g clip-path="url(#H)" transform="matrix(1.33333 0 0 -1.33333 420.91 926.233)"><path d="m0 0-5.66-5.895c2.024-2.64 3.175-5.669 3.175-8.89 0-1.091-.141-2.159-.395-3.199-.661-2.711-2.145-5.22-4.263-7.392-2.171-2.224-5.003-4.094-8.297-5.465a32 32 0 0 0-4.521-1.483 35.8 35.8 0 0 0-8.586-1.035c-3.705 0-7.225.551-10.416 1.546-4.346 1.354-8.072 3.526-10.796 6.247a18.2 18.2 0 0 0-2.56 3.181c-.873 1.385-1.519 2.859-1.897 4.401a13.5 13.5 0 0 0-.392 3.199c0 1.434.236 2.829.666 4.168l-6.504 6.583c-2.38-3.532-3.725-7.511-3.725-11.725 0-1.086.099-2.153.272-3.202.417-2.547 1.329-4.978 2.659-7.248a24.6 24.6 0 0 1 2.31-3.288c2.288-2.76 5.24-5.182 8.695-7.149 6.006-3.417 13.522-5.452 21.688-5.452 5.713 0 11.108.994 15.892 2.76a40 40 0 0 1 4.174 1.817c3.086 1.559 5.821 3.467 8.104 5.648 3.833 3.659 6.393 8.083 7.184 12.912.173 1.049.27 2.116.27 3.202C7.077-9.849 4.446-4.395 0 0" style="fill:#fff;fill-opacity:1;fill-rule:nonzero;stroke:none"/></g><g clip-path="url(#I)" transform="matrix(1.33333 0 0 -1.33333 391.536 959.016)"><path d="m0 0 6.536-6.276c3.293 1.371 6.148 3.22 8.321 5.444L5.896 7.773l-2.91 2.794 6.908 7.194 3.664 3.817 5.378 5.604 4.876 5.076 21.694-20.827-2.913-3.033-17.772-18.506c-1.871-2.565-4.299-4.841-7.169-6.804l7.301-7.046L59.2 11.708 23.533 45.954 10.176 32.042 4.83 26.476l-4.918-5.124-10.575-11.065Z" style="fill:#0033a1;fill-opacity:1;fill-rule:nonzero;stroke:none"/></g><g clip-path="url(#J)" transform="matrix(1.33333 0 0 -1.33333 351.348 956.315)"><path d="M0 0s.169-.281.19-.313c.523-.832 1.242-1.593 1.922-2.352l10.655 4.922-24.483 22.801-.67-3.527L6.825 2.514Z" style="fill:#98999b;fill-opacity:1;fill-rule:nonzero;stroke:none"/></g><g clip-path="url(#K)" transform="matrix(1.33333 0 0 -1.33333 430.347 947.245)"><path d="M0 0c0-1.085-.098-2.153-.271-3.202-.791-4.829-3.351-9.253-7.183-12.912-2.284-2.181-5.018-4.089-8.104-5.648a40 40 0 0 0-4.174-1.817c-4.784-1.766-10.179-2.76-15.892-2.76-8.166 0-15.683 2.035-21.689 5.452-3.455 1.967-6.406 4.389-8.694 7.149a24.6 24.6 0 0 0-2.31 3.289c-1.33 2.269-2.242 4.7-2.659 7.247A20 20 0 0 0-71.249 0c0 .34.024.678.042 1.014-.003.018-.009.043-.011.06-.173-1.05-.031-6.393-.031-7.477 0-1.718.229-3.396.655-5.023.33-1.267.785-2.502 1.353-3.697 1.429-3.014 3.576-5.779 6.295-8.18 6.537-5.767 16.349-9.439 27.322-9.439 7.616 0 14.664 1.772 20.455 4.78a36 36 0 0 1 3.742 2.234c2.869 1.964 5.301 4.27 7.172 6.836C-1.542-15.178 0-10.924 0-6.403 0-5.449.082-.931-.01.864-.025 1.11 0 .311 0 0" style="fill:#98999b;fill-opacity:1;fill-rule:nonzero;stroke:none"/></g><g clip-path="url(#L)" transform="matrix(1.33333 0 0 -1.33333 481.845 920.597)"><path d="M0 0h28.351l-2.669-10.918H12.093l-1.344-5.735h14.176l-2.468-10.116H8.465L5.106-41.14H-9.54Z" style="fill:#000;fill-opacity:1;fill-rule:nonzero;stroke:none"/></g><g clip-path="url(#M)" transform="matrix(1.33333 0 0 -1.33333 524.786 920.597)"><path d="M0 0h14.646l-9.54-41.14H-9.54Z" style="fill:#000;fill-opacity:1;fill-rule:nonzero;stroke:none"/></g><g clip-path="url(#N)" transform="matrix(1.33333 0 0 -1.33333 563.845 946.75)"><path d="M0 0c4.703 0 7.995 2.776 7.995 6.723 0 2.098-1.545 3.146-4.569 3.146-.873 0-1.343-.061-2.284-.247L-1.075.124C-.604.062-.537 0 0 0m-10.816 19.368.94.123c4.703.555 10.548.925 13.773.925 5.374 0 9.54-.616 12.698-1.911 4.03-1.666 6.45-5.305 6.45-9.684 0-3.762-1.277-7.34-3.696-10.116-2.083-2.405-3.964-3.577-7.861-4.749l-.94-.308a9 9 0 0 0 .739-.617c1.142-1.296 4.569-7.957 7.458-14.556H2.62C.538-15.666-.067-14.124-2.822-7.462l-3.224-14.063h-14.243z" style="fill:#000;fill-opacity:1;fill-rule:nonzero;stroke:none"/></g><g clip-path="url(#O)" transform="matrix(1.33333 0 0 -1.33333 640.929 920.597)"><path d="M0 0h35.536l-2.482-11.909H22.507L15.519-41.14H.873l6.988 29.231H-3.572Z" style="fill:#000;fill-opacity:1;fill-rule:nonzero;stroke:none"/></g><g clip-path="url(#P)" transform="matrix(1.33333 0 0 -1.33333 670.631 970.254)"><path d="M0 0c.317 0 .497.152.497.442 0 .277-.166.429-.483.429-.069 0-.083 0-.152-.014V.014C-.083 0-.055 0 0 0m-1.284 1.713c.18.013.207.027.566.055s.511.041.663.041c1.174 0 1.754-.456 1.754-1.326 0-.524-.221-.842-.691-1.022L.953-.552c.041-.028.055-.042.069-.069.124-.111.539-.732.884-1.299H.567c-.277.512-.36.65-.705 1.229V-1.92h-1.146zM.097-3.245A3.12 3.12 0 0 1 3.232-.124 3.124 3.124 0 0 1 .097 3.011 3.12 3.12 0 0 1-3.024-.11 3.103 3.103 0 0 1 .097-3.245m0 6.698A3.566 3.566 0 0 0 3.673-.11 3.56 3.56 0 0 0 .097-3.687c-2.003 0-3.563 1.561-3.563 3.577A3.537 3.537 0 0 0 .097 3.453" style="fill:#000;fill-opacity:1;fill-rule:nonzero;stroke:none"/></g><g clip-path="url(#Q)" transform="matrix(1.33333 0 0 -1.33333 590.76 974.056)"><path d="M0 0c4.118-1.223 8.62-1.909 12.827-1.909 5.711 0 10.078 1.294 13.84 4.009 4.165 2.961 6.853 7.524 6.853 11.657 0 2.776-1.209 5.305-3.359 7.094-1.68 1.356-3.427 2.405-6.988 4.07l-2.888 1.357c-.941.494-1.411.987-1.411 1.542 0 1.48 1.881 2.59 4.434 2.59 1.91 0 4.186-.555 8.536-1.978l3.002 11.137c-3.253.884-6.423 1.327-9.59 1.327-11.959 0-21.163-6.538-21.163-14.988 0-4.441 2.956-7.587 10.346-11.041 3.494-1.603 4.099-2.035 4.099-3.145 0-1.665-1.814-2.714-4.77-2.714-2.62 0-5.979.802-10.548 2.467l-.006-.002Z" style="fill:#000;fill-opacity:1;fill-rule:nonzero;stroke:none"/></g></svg>